<svg xmlns="http://www.w3.org/2000/svg" width="150" height="150" viewBox="0 0 203 131" version="1.1"><path d="M 90.630 6.250 C 88.869 12.824, 90.967 24.379, 94.809 29.266 C 98.406 33.839, 103.290 37.819, 107.308 39.451 C 123.180 45.897, 131.339 52.564, 136.739 63.500 C 138.641 67.350, 139.937 69.338, 139.621 67.917 C 138.611 63.384, 134.223 56.580, 128.682 50.958 C 123.437 45.636, 121.497 44.436, 107.965 38.131 C 101.815 35.266, 95.249 30, 97.826 30 C 98.472 30, 99 30.345, 99 30.766 C 99 31.744, 108.512 38, 109.999 38 C 110.628 38, 110.789 37.453, 110.367 36.750 C 109.780 35.773, 109.958 35.777, 111.181 36.767 C 112.042 37.464, 113.438 37.769, 114.282 37.445 C 115.127 37.121, 117.434 37.302, 119.409 37.847 C 121.541 38.436, 123 38.465, 123 37.919 C 123 37.414, 123.927 37, 125.059 37 C 126.348 37, 126.854 36.573, 126.412 35.858 C 125.434 34.276, 135.621 39.913, 138.312 42.443 C 139.515 43.574, 142.034 46.300, 143.909 48.500 C 146.516 51.559, 146.897 51.795, 145.530 49.500 C 139.498 39.383, 127.605 32.519, 111 29.572 C 102.418 28.049, 93 16.660, 93 7.804 C 93 3.626, 91.582 2.697, 90.630 6.250 M 83.792 8.250 C 82.973 9.693, 82.525 14.266, 82.545 21 C 82.573 30.811, 82.800 31.992, 86.013 39 C 87.904 43.125, 89.912 47.128, 90.476 47.896 C 92.244 50.305, 100.501 58.314, 106.031 62.984 C 108.952 65.451, 112.614 69.476, 114.171 71.930 C 115.727 74.384, 116.997 75.966, 116.993 75.446 C 116.974 72.640, 109.396 64.004, 101.493 57.780 C 98.197 55.183, 94.028 50.886, 92.230 48.229 C 88.855 43.245, 84.535 33.131, 85.408 32.258 C 85.680 31.986, 86.208 32.979, 86.581 34.465 C 87.085 36.474, 87.737 37.040, 89.129 36.676 C 90.158 36.407, 91 36.595, 91 37.094 C 91 37.592, 90.523 38, 89.941 38 C 89.359 38, 89.198 38.511, 89.583 39.135 C 90.041 39.875, 90.696 39.503, 91.464 38.067 C 92.453 36.219, 92.831 36.091, 93.813 37.274 C 94.456 38.050, 94.649 39.052, 94.241 39.502 C 93.834 39.952, 94.091 39.979, 94.813 39.562 C 95.569 39.126, 96.893 39.498, 97.934 40.440 C 98.928 41.340, 103.425 43.630, 107.926 45.528 C 122.426 51.644, 127.437 56.176, 133.781 68.912 C 135.586 72.536, 136.765 74.375, 136.402 73 C 132.998 60.118, 121.836 49.363, 105.901 43.610 C 93.860 39.263, 83.853 23.335, 85.329 10.869 C 85.971 5.450, 85.672 4.941, 83.792 8.250 M 123.500 21.607 C 115.910 23.345, 112.973 24.419, 113.281 25.344 C 113.476 25.929, 116.642 26.962, 120.316 27.640 C 123.990 28.318, 129.347 30.139, 132.220 31.687 C 139.407 35.558, 148.154 44.415, 151.833 51.547 C 153.522 54.821, 154.925 57.150, 154.952 56.721 C 154.978 56.293, 153.681 53.368, 152.069 50.221 C 149.105 44.434, 144.342 38.838, 137.983 33.669 C 135.513 31.661, 135.227 31.199, 137 32.081 C 138.375 32.765, 140.639 34.164, 142.032 35.189 C 145.015 37.386, 150 38.509, 150 36.984 C 150 36.254, 150.591 36.246, 151.919 36.957 C 153.317 37.705, 153.953 37.647, 154.261 36.742 C 154.899 34.869, 159.208 43.749, 160.695 50 L 162.003 55.500 161.491 50.500 C 160.571 41.514, 152.237 28.337, 148.281 29.614 C 146.818 30.086, 146.763 30.003, 147.974 29.147 C 149.144 28.320, 148.111 27.488, 142.974 25.119 C 136.767 22.257, 127.758 20.632, 123.500 21.607 M 104.441 29.445 C 105.509 30.300, 106.821 31, 107.358 31 C 108.628 31, 108.061 30.538, 105 29.080 C 102.643 27.958, 102.611 27.978, 104.441 29.445 M 88.970 32.944 C 90.116 35.085, 92.018 36.585, 91.968 35.309 C 91.924 34.194, 89.431 31, 88.605 31 C 88.233 31, 88.398 31.875, 88.970 32.944 M 150.996 33.496 C 152.286 34.869, 153.527 35.806, 153.754 35.579 C 154.247 35.087, 150.295 31, 149.326 31 C 148.955 31, 149.707 32.123, 150.996 33.496 M 119.356 33.631 C 122.026 34.451, 124.431 34.902, 124.699 34.634 C 125.271 34.062, 118.196 31.981, 116 32.075 C 115.175 32.110, 116.685 32.810, 119.356 33.631 M 149.391 58.432 C 150.551 61.389, 151.677 63.636, 151.894 63.426 C 152.433 62.905, 149.035 54.140, 148.062 53.538 C 147.632 53.273, 148.230 55.475, 149.391 58.432 M 75 55.391 C 75 55.605, 76.575 55.965, 78.500 56.190 C 80.425 56.415, 82 56.239, 82 55.799 C 82 55.360, 80.425 55, 78.500 55 C 76.575 55, 75 55.176, 75 55.391 M 65.263 58.155 C 58.139 61.610, 48.940 72.403, 49.022 77.210 C 49.034 77.920, 49.959 76.475, 51.077 74 C 53.925 67.695, 59.474 62.255, 66.500 58.882 C 69.800 57.298, 71.825 56.024, 71 56.051 C 70.175 56.078, 67.593 57.025, 65.263 58.155 M 87.942 58.059 C 90.386 59.168, 93.086 60.620, 93.942 61.287 C 95.324 62.363, 95.339 62.295, 94.080 60.692 C 93.298 59.698, 91.106 58.235, 89.207 57.442 C 83.951 55.246, 82.886 55.765, 87.942 58.059 M 160.881 59.781 C 160.552 61.769, 160.698 62.702, 161.253 62.147 C 161.757 61.643, 162.002 60.166, 161.797 58.865 C 161.482 56.864, 161.342 57.004, 160.881 59.781 M 77.225 63.475 C 74.324 64.826, 70.563 67.409, 68.868 69.216 C 64.901 73.442, 60.992 81.659, 61.119 85.500 C 61.204 88.049, 61.343 87.872, 62.044 84.326 C 64.295 72.943, 72.948 64.296, 84.344 62.041 C 87.887 61.340, 88.058 61.204, 85.500 61.119 C 83.850 61.064, 80.126 62.125, 77.225 63.475 M 156.158 63 C 156.158 64.375, 156.385 64.938, 156.662 64.250 C 156.940 63.563, 156.940 62.438, 156.662 61.750 C 156.385 61.063, 156.158 61.625, 156.158 63 M 96 62.747 C 96 63.371, 96.494 64.188, 97.099 64.561 C 97.703 64.935, 98.810 66.649, 99.560 68.370 C 100.309 70.092, 100.939 70.800, 100.961 69.944 C 100.982 69.089, 99.875 66.864, 98.500 65 C 97.125 63.136, 96 62.122, 96 62.747 M 93.405 64.750 C 94.453 65.987, 94.817 67, 94.214 67 C 93.611 67, 92.840 66.550, 92.500 66 C 92.160 65.450, 90.671 65.020, 89.191 65.044 C 86.849 65.082, 87.018 65.271, 90.500 66.505 C 92.700 67.284, 95.510 69.177, 96.745 70.711 C 97.980 72.245, 98.992 73.140, 98.995 72.700 C 99.005 71.032, 96.112 66.416, 93.852 64.498 L 91.500 62.500 93.405 64.750 M 159.601 66.456 C 159.028 68.736, 158.657 69.071, 157.947 67.948 C 157.189 66.750, 157.028 66.802, 157.015 68.250 C 157.007 69.213, 157.434 70, 157.965 70 C 159.248 70, 161.234 66.202, 160.734 64.702 C 160.516 64.049, 160.006 64.838, 159.601 66.456 M 79.973 66.704 C 77.247 68.582, 75.081 71.048, 75.032 72.327 C 75.014 72.781, 76.162 71.772, 77.583 70.084 C 79.004 68.396, 81.591 66.602, 83.333 66.097 C 85.442 65.487, 85.823 65.150, 84.473 65.090 C 83.357 65.041, 81.332 65.767, 79.973 66.704 M 152.232 70 C 152.232 71.925, 152.438 72.713, 152.689 71.750 C 152.941 70.787, 152.941 69.213, 152.689 68.250 C 152.438 67.287, 152.232 68.075, 152.232 70 M 140.079 72.583 C 140.127 73.748, 140.364 73.985, 140.683 73.188 C 140.972 72.466, 140.936 71.603, 140.604 71.271 C 140.272 70.939, 140.036 71.529, 140.079 72.583 M 73.546 75.855 C 73.222 76.875, 73.359 78.788, 73.851 80.105 C 74.618 82.162, 74.753 81.900, 74.809 78.250 C 74.880 73.669, 74.480 72.912, 73.546 75.855 M 141.336 82 C 141.336 86.125, 141.513 87.813, 141.728 85.750 C 141.944 83.688, 141.944 80.313, 141.728 78.250 C 141.513 76.188, 141.336 77.875, 141.336 82 M 152.232 78 C 152.232 79.925, 152.438 80.713, 152.689 79.750 C 152.941 78.787, 152.941 77.213, 152.689 76.250 C 152.438 75.287, 152.232 76.075, 152.232 78 M 99.103 79.679 C 97.501 84.217, 95.561 86.631, 91.500 89.139 C 89.850 90.159, 89.047 90.994, 89.715 90.996 C 93.191 91.007, 101.798 79.895, 100.750 76.750 C 100.587 76.260, 99.846 77.578, 99.103 79.679 M 137.286 83.500 C 137.294 86.250, 137.488 87.256, 137.718 85.736 C 137.947 84.216, 137.941 81.966, 137.704 80.736 C 137.467 79.506, 137.279 80.750, 137.286 83.500 M 118 81.441 C 118 82.234, 118.408 83.134, 118.907 83.442 C 119.405 83.751, 119.578 83.102, 119.290 82.001 C 118.679 79.666, 118 79.371, 118 81.441 M 76.144 85 C 77.016 86.375, 79.253 88.311, 81.115 89.302 C 82.977 90.294, 83.614 90.519, 82.530 89.802 C 81.447 89.086, 79.210 87.150, 77.559 85.500 C 74.953 82.895, 74.766 82.829, 76.144 85 M 151.079 84.583 C 151.127 85.748, 151.364 85.985, 151.683 85.188 C 151.972 84.466, 151.936 83.603, 151.604 83.271 C 151.272 82.939, 151.036 83.529, 151.079 84.583 M 148.320 92.272 C 145.213 98.655, 138.173 107.111, 136.237 106.783 C 135.265 106.618, 134.412 107.286, 134.186 108.389 C 133.170 113.356, 144.716 101.422, 148.926 93.153 C 150.144 90.762, 150.968 88.635, 150.758 88.425 C 150.549 88.215, 149.451 89.947, 148.320 92.272 M 48.079 91.583 C 48.127 92.748, 48.364 92.985, 48.683 92.188 C 48.972 91.466, 48.936 90.603, 48.604 90.271 C 48.272 89.939, 48.036 90.529, 48.079 91.583 M 140.624 91.539 C 140.281 92.432, 140.029 93.689, 140.063 94.332 C 140.098 94.974, 140.558 94.422, 141.085 93.105 C 141.612 91.787, 141.864 90.531, 141.645 90.312 C 141.426 90.093, 140.966 90.645, 140.624 91.539 M 61.195 93.500 C 61.215 95.150, 61.439 95.704, 61.693 94.731 C 61.947 93.758, 61.930 92.408, 61.656 91.731 C 61.382 91.054, 61.175 91.850, 61.195 93.500 M 118.079 94.583 C 118.127 95.748, 118.364 95.985, 118.683 95.188 C 118.972 94.466, 118.936 93.603, 118.604 93.271 C 118.272 92.939, 118.036 93.529, 118.079 94.583 M 139.079 97.583 C 139.127 98.748, 139.364 98.985, 139.683 98.188 C 139.972 97.466, 139.936 96.603, 139.604 96.271 C 139.272 95.939, 139.036 96.529, 139.079 97.583 M 62.086 98 C 62.055 98.825, 62.467 100.175, 63 101 C 64.181 102.828, 64.181 101.249, 63 98.500 C 62.433 97.181, 62.122 97.011, 62.086 98 M 133.548 98.849 C 133.199 99.949, 131.753 102.558, 130.335 104.647 C 128.901 106.761, 128.509 107.822, 129.452 107.040 C 131.413 105.412, 135.369 98.036, 134.661 97.328 C 134.398 97.065, 133.897 97.749, 133.548 98.849 M 114.736 103.256 L 112.971 106.500 114.986 104.139 C 116.700 102.130, 117.616 99.984, 116.750 100.006 C 116.612 100.010, 115.706 101.472, 114.736 103.256 M 137.144 102.750 C 136.053 105.300, 136.078 105.359, 137.484 103.559 C 138.318 102.491, 139 101.254, 139 100.809 C 139 99.289, 138.322 99.999, 137.144 102.750 M 51 101.711 C 51 102.285, 51.788 103.373, 52.750 104.128 C 54.369 105.397, 54.390 105.350, 53.033 103.500 C 52.226 102.400, 51.439 101.313, 51.283 101.083 C 51.127 100.854, 51 101.137, 51 101.711 M 69 109.367 C 70.925 111.455, 73.400 113.638, 74.500 114.218 C 75.600 114.797, 76.275 115.062, 76 114.806 C 75.725 114.550, 73.250 112.367, 70.500 109.955 C 65.748 105.787, 65.673 105.758, 69 109.367 M 108.500 110.649 C 105.489 113.340, 105.263 113.713, 107.589 112.158 C 110.353 110.310, 113.829 106.941, 112.872 107.038 C 112.668 107.058, 110.700 108.683, 108.500 110.649 M 59.500 112.863 C 61.700 115.225, 64.400 117.634, 65.500 118.215 C 66.600 118.796, 67.275 119.067, 67 118.817 C 66.725 118.568, 64.025 116.159, 61 113.465 C 55.578 108.636, 55.557 108.628, 59.500 112.863 M 124.437 112.250 L 121.500 115.500 124.750 112.563 C 126.537 110.948, 128 109.485, 128 109.313 C 128 108.540, 127.175 109.221, 124.437 112.250 M 102 115 C 101.099 115.582, 100.975 115.975, 101.691 115.985 C 102.346 115.993, 103.160 115.550, 103.500 115 C 104.267 113.758, 103.921 113.758, 102 115 M 78 116 C 78.825 116.533, 80.175 116.945, 81 116.914 C 81.989 116.878, 81.819 116.567, 80.500 116 C 77.751 114.819, 76.172 114.819, 78 116 M 114 118.709 C 110.425 120.577, 108.625 121.799, 110 121.424 C 113.445 120.486, 119.731 117.245, 120.491 116.014 C 120.836 115.456, 120.979 115.070, 120.809 115.156 C 120.639 115.242, 117.575 116.841, 114 118.709 M 97.813 116.683 C 98.534 116.972, 99.397 116.936, 99.729 116.604 C 100.061 116.272, 99.471 116.036, 98.417 116.079 C 97.252 116.127, 97.015 116.364, 97.813 116.683 M 83.750 117.662 C 84.438 117.940, 85.563 117.940, 86.250 117.662 C 86.938 117.385, 86.375 117.158, 85 117.158 C 83.625 117.158, 83.063 117.385, 83.750 117.662 M 92.750 117.662 C 93.438 117.940, 94.563 117.940, 95.250 117.662 C 95.938 117.385, 95.375 117.158, 94 117.158 C 92.625 117.158, 92.063 117.385, 92.750 117.662 M 75.500 123 C 78.249 124.181, 79.828 124.181, 78 123 C 77.175 122.467, 75.825 122.055, 75 122.086 C 74.011 122.122, 74.181 122.433, 75.500 123 M 103 123 C 101.172 124.181, 102.751 124.181, 105.500 123 C 106.819 122.433, 106.989 122.122, 106 122.086 C 105.175 122.055, 103.825 122.467, 103 123 M 83.813 124.683 C 84.534 124.972, 85.397 124.936, 85.729 124.604 C 86.061 124.272, 85.471 124.036, 84.417 124.079 C 83.252 124.127, 83.015 124.364, 83.813 124.683 M 96.750 124.662 C 97.438 124.940, 98.563 124.940, 99.250 124.662 C 99.938 124.385, 99.375 124.158, 98 124.158 C 96.625 124.158, 96.063 124.385, 96.750 124.662" stroke="none" fill="#e1ca9a" fill-rule="evenodd"/><path d="M 104.441 29.445 C 105.509 30.300, 106.821 31, 107.358 31 C 108.628 31, 108.061 30.538, 105 29.080 C 102.643 27.958, 102.611 27.978, 104.441 29.445 M 99.040 32.543 C 100.354 33.942, 104.370 36.456, 107.965 38.131 C 121.497 44.436, 123.437 45.636, 128.682 50.958 C 135.127 57.497, 138.487 63.233, 140.560 71.232 C 143.345 81.978, 141.436 97.827, 136.438 105.454 L 134.575 108.298 136.778 107.119 C 139.381 105.726, 145.925 97.194, 148.824 91.415 C 151.465 86.148, 152.839 75.752, 151.922 67.975 C 150.501 55.918, 141.987 43.533, 131.046 37.608 C 128.109 36.017, 126.024 35.229, 126.412 35.858 C 126.854 36.573, 126.348 37, 125.059 37 C 123.927 37, 123 37.414, 123 37.919 C 123 38.465, 121.541 38.436, 119.409 37.847 C 117.434 37.302, 115.127 37.121, 114.282 37.445 C 113.438 37.769, 112.042 37.464, 111.181 36.767 C 109.958 35.777, 109.780 35.773, 110.367 36.750 C 110.789 37.453, 110.628 38, 109.999 38 C 108.512 38, 99 31.744, 99 30.766 C 99 30.345, 98.472 30, 97.826 30 C 97.180 30, 97.726 31.144, 99.040 32.543 M 89.333 33.385 C 90.926 35.817, 90.634 37, 88.442 37 C 87.768 37, 86.921 35.822, 86.560 34.382 C 86.198 32.942, 85.680 31.986, 85.408 32.258 C 84.500 33.167, 88.939 43.394, 92.462 48.509 C 94.377 51.289, 98.544 55.544, 101.722 57.964 C 117.316 69.838, 122.505 83.530, 117.378 99.274 C 115.559 104.859, 108.483 112.592, 102.500 115.533 C 96.582 118.442, 82.065 118.321, 76.432 115.315 C 72.018 112.961, 65.967 106.791, 63.677 102.310 C 58.437 92.058, 60.653 77.951, 68.878 69.199 C 73.233 64.565, 82.202 60.609, 86.699 61.339 C 91.270 62.080, 94.627 64.341, 97.044 68.304 C 99.692 72.647, 99.506 74.141, 96.745 70.711 C 93.841 67.103, 87.689 64.949, 83.577 66.101 C 79.587 67.218, 75.031 72.284, 74.885 75.766 C 74.601 82.494, 76.241 85.765, 81.434 88.828 C 88.453 92.970, 95.718 88.907, 99.515 78.717 C 100.984 74.775, 101.100 73.281, 100.174 70.217 C 98.666 65.226, 94.743 61.229, 88.591 58.415 C 74.361 51.908, 56.096 60.435, 50.135 76.369 C 47.597 83.152, 47.483 86.596, 49.537 94.482 C 52.970 107.661, 63.026 118.137, 76.594 122.669 C 85.253 125.563, 97.966 125.107, 107.437 121.565 C 121.621 116.261, 127.768 110.817, 133.589 98.405 C 136.652 91.877, 136.895 90.639, 136.640 82.905 C 136.426 76.395, 135.787 73.260, 133.806 69 C 128.192 56.925, 122.319 51.598, 107.926 45.528 C 103.425 43.630, 98.928 41.340, 97.934 40.440 C 96.940 39.540, 95.637 39.107, 95.038 39.476 C 94.440 39.846, 94.059 39.778, 94.192 39.324 C 94.518 38.207, 89.719 31.028, 88.635 31.012 C 88.159 31.006, 88.473 32.073, 89.333 33.385 M 137.983 33.669 C 149.137 42.735, 154.426 51.614, 157.533 66.486 C 158.042 68.923, 158.324 69.173, 159.066 67.846 C 159.566 66.952, 160.228 64.484, 160.536 62.360 C 160.844 60.237, 161.254 58.021, 161.446 57.436 C 162.138 55.325, 159.790 45.520, 157.524 41.059 C 155.165 36.413, 150.246 30.420, 149.449 31.218 C 149.206 31.460, 150.131 32.714, 151.504 34.004 C 154.502 36.820, 154.777 38.486, 152 37 C 150.607 36.255, 150 36.250, 150 36.984 C 150 38.509, 145.015 37.386, 142.032 35.189 C 140.639 34.164, 138.375 32.765, 137 32.081 C 135.227 31.199, 135.513 31.661, 137.983 33.669 M 119.356 33.631 C 122.026 34.451, 124.431 34.902, 124.699 34.634 C 125.271 34.062, 118.196 31.981, 116 32.075 C 115.175 32.110, 116.685 32.810, 119.356 33.631 M 90.260 37.548 C 89.578 38.288, 89.418 39.140, 89.905 39.441 C 90.392 39.742, 91.073 39.252, 91.419 38.351 C 92.246 36.196, 91.794 35.882, 90.260 37.548" stroke="none" fill="#c4912e" fill-rule="evenodd"/></svg>