<svg xmlns="http://www.w3.org/2000/svg" width="1080" height="500" viewBox="0 0 500 248" version="1.1"><path d="M 304.633 11.250 C 303.856 12.488, 302.069 15.366, 300.663 17.647 C 298.787 20.687, 296.889 22.259, 293.552 23.533 C 288.234 25.564, 287.849 26.520, 292.013 27.353 C 296.348 28.220, 305.309 34.228, 308.493 38.402 C 309.994 40.370, 311.681 41.697, 312.242 41.350 C 313.922 40.312, 312.407 24.157, 310.074 18.239 C 308.933 15.346, 308 12.083, 308 10.989 C 308 8.341, 306.381 8.467, 304.633 11.250 M 239.630 13.250 C 237.869 19.823, 239.871 31.324, 243.594 36.014 C 247.433 40.851, 252.217 44.791, 256.308 46.484 C 274.827 54.148, 282.957 61.776, 288.283 76.487 C 290.053 81.376, 290.082 81.401, 289.465 77.500 C 288.681 72.544, 284.796 65.257, 279.679 59.146 C 276.591 55.458, 276.940 55.690, 281.372 60.272 C 284.442 63.447, 286.721 65.438, 286.437 64.697 C 286.038 63.656, 287.065 63.415, 290.960 63.637 C 296.422 63.948, 296.535 63.868, 294.900 60.814 C 294.291 59.675, 294.236 59.028, 294.779 59.363 C 296.507 60.431, 299.107 66.924, 300.563 73.806 L 301.979 80.500 301.475 74.500 C 300.584 63.900, 293.036 51.561, 283.377 44.916 C 278.518 41.572, 266.188 37, 262.031 37 C 260.590 37, 256.973 35.538, 253.992 33.750 C 247.273 29.721, 242.912 23.141, 242.225 15.994 C 241.716 10.691, 240.625 9.538, 239.630 13.250 M 232.792 15.250 C 231.973 16.693, 231.525 21.266, 231.545 28 C 231.573 37.811, 231.800 38.992, 235.013 46 C 236.904 50.125, 238.912 54.128, 239.476 54.896 C 241.368 57.474, 249.570 65.458, 255.341 70.340 C 258.488 73.002, 262.394 77.502, 264.022 80.340 C 267.318 86.088, 268.078 85.994, 265.072 80.210 C 262.879 75.991, 257.010 69.711, 248.700 62.690 C 245.568 60.045, 242.546 57.019, 241.982 55.967 C 241.419 54.915, 243.129 56.225, 245.783 58.878 L 250.608 63.703 261.304 63.601 C 267.186 63.546, 271.999 63.169, 272 62.764 C 272 62.359, 270.200 60.837, 268 59.381 C 265.800 57.925, 264 56.517, 264 56.252 C 264 55.987, 265.125 56.497, 266.500 57.385 C 267.875 58.273, 270.148 59.742, 271.551 60.649 C 278.218 64.956, 284.220 77.063, 286.103 90 C 286.803 94.808, 286.843 94.557, 286.425 88 C 285.317 70.643, 274.346 57.630, 254.901 50.610 C 242.860 46.263, 232.853 30.335, 234.329 17.869 C 234.971 12.450, 234.672 11.941, 232.792 15.250 M 272.500 28.607 C 264.910 30.345, 261.973 31.419, 262.281 32.344 C 262.476 32.929, 265.655 33.965, 269.345 34.646 C 282.609 37.094, 295.045 46.972, 301.429 60.131 C 303.393 64.180, 305 68.481, 305 69.688 C 305 70.894, 305.450 72.160, 306 72.500 C 306.550 72.840, 307 72.948, 307 72.741 C 307 71.319, 303.644 61.317, 302.909 60.550 C 302.409 60.027, 302.008 59.127, 302.017 58.550 C 302.026 57.972, 302.970 58.962, 304.115 60.750 C 306.902 65.102, 308.783 64.919, 309.272 60.250 C 309.590 57.202, 309.695 57.493, 309.832 61.807 C 310.037 68.294, 308.111 76.782, 306.876 74.833 C 306.229 73.813, 306.027 73.911, 306.015 75.250 C 306.007 76.213, 306.434 77, 306.965 77 C 309.227 77, 310.451 72.119, 310.475 63 C 310.504 52.165, 308.993 47.820, 302.410 39.794 C 296.331 32.384, 281.018 26.656, 272.500 28.607 M 221 62.878 C 215.377 64.092, 210.309 66.926, 205.926 71.309 C 201.936 75.299, 198 81.679, 198 84.157 C 198 84.836, 199.163 83.059, 200.584 80.207 C 202.005 77.356, 205.221 73.215, 207.730 71.007 C 220.233 60.001, 241.981 62.336, 248.413 75.376 C 249.261 77.094, 249.965 77.800, 249.977 76.944 C 250.028 73.509, 243.474 66.707, 237.712 64.215 C 234.036 62.624, 225.382 61.932, 221 62.878 M 225.556 70.338 C 215.878 75.644, 209.743 85.750, 209.759 96.363 C 209.765 99.920, 210.454 103.972, 211.399 106 C 212.296 107.925, 212.767 108.600, 212.446 107.500 C 208.859 95.215, 210.814 85.190, 218.362 77.162 C 225.002 70.100, 235.455 67.451, 241.379 71.330 C 242.916 72.336, 243.902 73.431, 243.570 73.763 C 243.238 74.095, 242.434 73.834, 241.783 73.183 C 240.137 71.537, 232.475 71.703, 229.080 73.459 C 227.408 74.323, 225.351 76.850, 224.029 79.662 C 221.809 84.385, 221.807 84.428, 223.673 88.930 C 225.432 93.175, 230.700 98.064, 233.398 97.956 C 234.004 97.931, 232.821 97.025, 230.768 95.941 C 222.393 91.519, 221.522 79.701, 229.225 75.004 C 234.994 71.487, 242.056 72.943, 246.567 78.580 C 248.035 80.414, 248.072 80.388, 247.407 78 C 244.888 68.960, 234.632 65.364, 225.556 70.338 M 289.721 91.702 C 289.437 97.091, 288.938 102.625, 288.613 104 C 288.287 105.375, 288.698 104.475, 289.524 102 C 290.919 97.825, 291.789 83.455, 290.712 82.379 C 290.450 82.117, 290.004 86.312, 289.721 91.702 M 301.150 84.125 C 301.067 85.569, 300.777 88.269, 300.503 90.125 L 300.007 93.500 301.060 90.144 C 301.639 88.298, 301.929 85.598, 301.706 84.144 L 301.300 81.500 301.150 84.125 M 247 88.435 C 245.568 91.337, 243.049 94.461, 241.102 95.750 C 239.233 96.987, 238.205 98, 238.817 98 C 240.870 98, 247.079 91.747, 248.571 88.176 C 250.886 82.635, 249.772 82.819, 247 88.435 M 297.752 98.267 C 295.285 104.240, 287.309 114.135, 285.245 113.784 C 284.264 113.618, 283.413 114.282, 283.186 115.389 C 282.821 117.176, 282.960 117.164, 285.745 115.182 C 291.301 111.225, 300.730 97.656, 299.808 94.943 C 299.639 94.443, 298.713 95.940, 297.752 98.267 M 283.800 101.744 C 282.865 104.950, 280.936 109.357, 279.514 111.537 C 276.958 115.453, 276.956 115.468, 279.373 112.799 C 282.004 109.895, 286.276 99.583, 285.794 97.303 C 285.632 96.540, 284.735 98.538, 283.800 101.744 M 199.483 107 C 199.885 108.375, 200.890 110.175, 201.716 111 C 202.874 112.157, 202.821 111.700, 201.482 109 C 199.269 104.539, 198.553 103.823, 199.483 107 M 264.464 109.114 C 264.069 110.359, 261.442 113.655, 258.627 116.439 C 253.631 121.378, 254.669 121.142, 260.339 116.050 C 263.305 113.386, 266.496 108.163, 265.665 107.332 C 265.400 107.066, 264.859 107.868, 264.464 109.114 M 213.011 110.272 C 212.994 111.491, 221.153 120.018, 223.437 121.169 C 224.572 121.740, 223.832 120.794, 221.794 119.067 C 219.755 117.340, 216.948 114.480, 215.555 112.713 C 214.162 110.946, 213.017 109.848, 213.011 110.272 M 208.501 119.800 C 212.177 123.753, 219.719 129.013, 221.678 128.991 C 222.130 128.985, 220.475 127.799, 218 126.354 C 215.525 124.909, 211.475 121.875, 209.001 119.613 L 204.502 115.500 208.501 119.800 M 273.437 119.250 L 270.500 122.500 273.750 119.563 C 276.779 116.825, 277.460 116, 276.687 116 C 276.515 116, 275.052 117.463, 273.437 119.250 M 263 125.709 C 259.425 127.577, 257.625 128.799, 259 128.424 C 262.445 127.486, 268.731 124.245, 269.491 123.014 C 269.836 122.456, 269.979 122.070, 269.809 122.156 C 269.639 122.242, 266.575 123.841, 263 125.709 M 243.500 124 C 240.778 124.693, 240.732 124.768, 243 124.811 C 244.375 124.838, 246.400 124.473, 247.500 124 C 249.966 122.940, 247.664 122.940, 243.500 124 M 224.500 130 C 225.600 130.473, 227.175 130.859, 228 130.859 C 228.945 130.859, 228.761 130.542, 227.500 130 C 226.400 129.527, 224.825 129.141, 224 129.141 C 223.055 129.141, 223.239 129.458, 224.500 130 M 210.500 154.500 C 210.500 159.620, 210.838 163.600, 211.250 163.345 C 211.662 163.091, 212 159.110, 212 154.500 C 212 149.890, 211.662 145.909, 211.250 145.655 C 210.838 145.400, 210.500 149.380, 210.500 154.500 M 215.394 146.416 C 215.095 147.194, 215.013 149.107, 215.210 150.666 C 215.504 152.979, 215.660 152.718, 216.061 149.250 C 216.567 144.877, 216.345 143.936, 215.394 146.416 M 223.951 149.276 C 224.438 153.396, 224.459 153.417, 224.798 150.123 C 224.989 148.265, 224.765 146.365, 224.299 145.899 C 223.833 145.433, 223.677 146.953, 223.951 149.276 M 228.425 146.334 C 228.144 147.067, 228.050 151.455, 228.216 156.084 L 228.518 164.500 229.009 154.748 C 229.497 145.062, 229.407 143.775, 228.425 146.334 M 256.992 155.205 C 256.721 159.992, 256.858 163.550, 257.295 163.110 C 257.732 162.670, 257.953 158.753, 257.786 154.405 L 257.483 146.500 256.992 155.205 M 268.343 154.500 C 268.346 158.900, 268.522 160.576, 268.733 158.224 C 268.945 155.872, 268.942 152.272, 268.727 150.224 C 268.512 148.176, 268.339 150.100, 268.343 154.500 M 215.394 156.416 C 215.095 157.194, 215.042 159.107, 215.276 160.666 C 215.633 163.049, 215.724 162.904, 215.850 159.750 C 215.997 156.077, 216.080 156, 219.940 156 C 223.756 156, 223.892 156.118, 224.272 159.750 L 224.664 163.500 224.832 159.250 L 225 155 220.469 155 C 217.483 155, 215.752 155.483, 215.394 156.416 M 290 165 L 283.500 165.655 289.691 165.827 C 293.096 165.922, 296.160 165.550, 296.500 165 C 296.840 164.450, 296.979 164.078, 296.809 164.173 C 296.639 164.268, 293.575 164.640, 290 165 M 238.250 165.689 C 239.213 165.941, 240.787 165.941, 241.750 165.689 C 242.713 165.438, 241.925 165.232, 240 165.232 C 238.075 165.232, 237.287 165.438, 238.250 165.689 M 272.768 165.725 C 274.565 165.947, 277.265 165.943, 278.768 165.715 C 280.271 165.486, 278.800 165.304, 275.500 165.310 C 272.200 165.315, 270.971 165.502, 272.768 165.725 M 197.409 195.500 C 197.408 204.850, 197.558 208.810, 197.743 204.299 C 197.928 199.789, 197.929 192.139, 197.745 187.299 C 197.562 182.460, 197.410 186.150, 197.409 195.500 M 288.232 185 C 288.232 186.925, 288.438 187.713, 288.689 186.750 C 288.941 185.787, 288.941 184.213, 288.689 183.250 C 288.438 182.287, 288.232 183.075, 288.232 185 M 106.286 197.500 C 106.294 200.250, 106.488 201.256, 106.718 199.736 C 106.947 198.216, 106.941 195.966, 106.704 194.736 C 106.467 193.506, 106.279 194.750, 106.286 197.500 M 273.250 195.716 C 274.762 195.945, 277.238 195.945, 278.750 195.716 C 280.262 195.487, 279.025 195.300, 276 195.300 C 272.975 195.300, 271.738 195.487, 273.250 195.716" stroke="none" fill="#eac77d" fill-rule="evenodd"/><path d="M 241.982 55.967 C 242.546 57.019, 245.568 60.045, 248.700 62.690 C 263.925 75.552, 268.252 82.565, 268.240 94.360 C 268.226 107.502, 262.483 117.050, 251.225 122.648 C 245.634 125.428, 230.941 125.239, 225.500 122.318 C 204.423 110.999, 204.654 81.418, 225.907 70.250 C 235.096 65.421, 244.886 68.950, 247.407 78 C 248.072 80.388, 248.035 80.414, 246.567 78.580 C 242.056 72.943, 234.994 71.487, 229.225 75.004 C 219.540 80.909, 223.943 96.182, 235.701 97.473 C 241.874 98.150, 250.950 85.879, 249.600 78.683 C 248.609 73.397, 243 67.627, 236.957 65.675 C 221.978 60.837, 207.087 66.976, 200.306 80.786 C 194.743 92.115, 197.669 106.987, 207.633 118.015 C 221.733 133.622, 246.464 135.881, 267.603 123.492 C 275.978 118.584, 282.813 108.161, 285.239 96.598 C 288.081 83.047, 279.554 64.652, 267.206 57.693 C 262.714 55.163, 263.207 56.209, 268 59.381 C 270.200 60.837, 272 62.359, 272 62.764 C 271.999 63.169, 267.186 63.546, 261.304 63.601 L 250.608 63.703 245.783 58.878 C 243.129 56.225, 241.419 54.915, 241.982 55.967 M 279.263 58.625 C 284.484 64.768, 288.143 71.518, 289.685 77.853 C 292.452 89.222, 290.784 103.674, 285.757 111.868 L 283.691 115.236 285.836 114.088 C 288.247 112.798, 294.870 104.275, 297.496 99.082 C 300.671 92.806, 301.946 81.937, 300.437 74.016 C 299.095 66.971, 296.589 60.482, 294.779 59.363 C 294.236 59.028, 294.291 59.675, 294.900 60.814 C 296.535 63.868, 296.422 63.948, 290.960 63.637 C 287.065 63.415, 286.038 63.656, 286.437 64.697 C 286.721 65.438, 284.435 63.447, 281.355 60.272 C 278.276 57.097, 277.334 56.356, 279.263 58.625 M 309.175 60.250 C 308.955 64.974, 306.947 65.173, 304.115 60.750 C 302.970 58.962, 302.026 57.973, 302.017 58.550 C 302.008 59.128, 302.409 60.028, 302.909 60.550 C 304.078 61.772, 307.097 72.033, 306.549 72.921 C 306.320 73.292, 306.506 74.200, 306.963 74.939 C 308.177 76.904, 310.264 66.506, 309.761 61 C 309.370 56.721, 309.341 56.684, 309.175 60.250 M 211.850 153.226 C 212.087 159.182, 211.803 162.532, 210.978 163.526 C 209.938 164.780, 210.314 165, 213.500 165 C 216.640 165, 217.052 164.768, 216.054 163.565 C 215.399 162.776, 215.007 160.639, 215.182 158.815 C 215.490 155.607, 215.658 155.490, 220.383 155.190 L 225.266 154.880 224.780 159.940 C 224.335 164.571, 224.472 165, 226.397 164.998 C 228.401 164.997, 228.500 164.501, 228.500 154.498 C 228.500 144.455, 228.407 143.998, 226.373 143.999 C 224.443 144, 224.293 144.418, 224.753 148.500 L 225.260 153 220 153 L 214.740 153 215.225 148.700 C 215.659 144.842, 215.493 144.400, 213.605 144.399 C 211.598 144.398, 211.516 144.808, 211.850 153.226 M 237.030 145.279 C 233.651 146.989, 230 152.674, 230 156.225 C 230 160.878, 234.792 165, 240.201 165 C 246.939 165, 250.754 161.454, 251.719 154.297 C 252.093 151.518, 251.591 150.391, 248.684 147.484 C 244.919 143.719, 241.421 143.057, 237.030 145.279 M 251.238 145.232 C 251.467 145.929, 253.082 146.641, 254.827 146.813 L 258 147.127 258 154.863 C 258 159.547, 257.527 163.073, 256.800 163.800 C 255.867 164.733, 256.478 164.982, 259.550 164.921 C 261.723 164.878, 262.938 164.615, 262.250 164.338 C 261.389 163.990, 261 161.214, 261 155.417 C 261 147.181, 261.052 147, 263.418 147 C 264.748 147, 266.581 146.714, 267.490 146.365 C 268.971 145.797, 269.110 146.739, 268.822 155.368 L 268.500 165.004 282.281 165.002 C 296.836 165, 298.331 164.498, 296.431 160.250 C 295.744 158.715, 295.600 158.776, 295.255 160.750 C 294.930 162.604, 294.214 163, 291.180 163 L 287.500 163 287.681 153.569 L 287.863 144.138 284.931 144.221 C 283.319 144.267, 282 144.686, 282 145.152 C 282 145.618, 282.337 146, 282.750 146 C 283.618 145.999, 283.462 162.872, 282.585 163.748 C 282.263 164.070, 282 163.921, 282.001 163.417 C 282.001 162.913, 279.837 162.650, 277.192 162.834 L 272.382 163.167 272.812 159.488 C 273.223 155.964, 273.383 155.826, 276.621 156.204 C 279.354 156.523, 280 156.254, 280 154.799 C 280 153.410, 279.203 153, 276.500 153 C 273.251 153, 273 152.777, 273 149.895 C 273 146.872, 273.106 146.800, 277.031 147.174 C 280.237 147.480, 281.002 147.246, 280.768 146.029 C 280.524 144.754, 278.017 144.456, 265.648 144.232 C 254.029 144.022, 250.911 144.238, 251.238 145.232 M 238 146.709 C 232.158 148.857, 231.215 155.369, 236.046 160.200 C 238.683 162.837, 239.590 163.166, 242.793 162.646 C 251.076 161.302, 251.200 151.740, 242.989 147.494 C 241.400 146.672, 239.964 146.036, 239.800 146.079 C 239.635 146.122, 238.825 146.406, 238 146.709 M 82.500 173.885 C 74.921 175.857, 69.138 180.706, 65.721 187.955 C 63.603 192.447, 62.547 200.031, 63.904 201 C 64.289 201.275, 65.372 203.150, 66.310 205.168 C 69.893 212.872, 77.614 217.008, 88.372 216.985 C 96.686 216.967, 102.444 215.239, 104.642 212.100 C 106.505 209.441, 105.722 208.156, 103.408 210.076 C 99.045 213.697, 89.339 215.016, 82.899 212.864 C 69.723 208.460, 64.850 186.386, 75.511 179.401 C 81.074 175.756, 91.996 175.829, 97.478 179.549 C 101.722 182.429, 102.108 182.402, 100.935 179.302 C 99.318 175.031, 89.351 172.102, 82.500 173.885 M 124.598 173.678 C 123.553 173.968, 120.559 175.520, 117.947 177.128 C 110.280 181.845, 106.981 187.964, 107.035 197.365 C 107.055 200.739, 107.617 204.437, 108.285 205.583 C 117.494 221.378, 137.150 220.821, 146.476 204.500 C 153.488 192.230, 148.076 177.956, 135 174.230 C 132.256 173.448, 126.525 173.144, 124.598 173.678 M 160.500 174.114 C 148.081 181.278, 150.223 193.372, 164.724 197.965 C 172.612 200.463, 175.088 205.200, 171.088 210.139 C 169.453 212.159, 168.285 212.500, 163 212.500 C 157.715 212.500, 156.547 212.159, 154.912 210.139 C 153.860 208.841, 153 206.703, 153 205.389 C 153 204.075, 152.529 203, 151.954 203 C 151.301 203, 151.020 205.532, 151.204 209.750 L 151.500 216.500 156 216.836 C 158.475 217.021, 162.865 216.651, 165.755 216.013 C 172.107 214.612, 176.120 210.171, 176.586 204.024 C 176.843 200.631, 176.372 199.607, 173.004 196.240 C 170.765 194, 167.304 191.822, 164.813 191.084 C 158.566 189.234, 157.608 188.597, 156.533 185.578 C 155.817 183.567, 155.956 182.169, 157.070 180.185 C 158.346 177.911, 159.351 177.456, 163.712 177.178 C 167.913 176.910, 169.244 177.244, 171.009 179.009 C 172.196 180.196, 173.356 180.977, 173.588 180.745 C 174.393 179.940, 171.913 174.333, 170.710 174.240 C 170.045 174.189, 167.925 173.880, 166 173.554 C 164.040 173.221, 161.620 173.468, 160.500 174.114 M 177 174.559 C 177 176.586, 179.648 179.378, 180.406 178.151 C 180.798 177.518, 183.341 177, 186.059 177 L 191 177 191 195.500 C 191 211.102, 190.770 214, 189.531 214 C 188.617 214, 188.287 214.584, 188.657 215.548 C 189.396 217.475, 199.108 217.214, 199.755 215.250 C 199.981 214.563, 199.454 214, 198.583 214 C 197.196 214, 197 211.722, 197 195.631 L 197 177.261 202.199 177.144 C 205.301 177.074, 207.700 177.514, 208.145 178.235 C 209.079 179.746, 209.665 179.181, 210.464 175.998 L 211.091 173.500 194.046 173.500 C 182.717 173.500, 177 173.855, 177 174.559 M 216.465 193.493 C 212.189 204.262, 207.973 213.479, 207.096 213.974 C 204.899 215.215, 207.011 217.282, 210.018 216.835 C 211.695 216.585, 212.337 215.738, 212.545 213.500 C 212.698 211.850, 213.947 207.800, 215.320 204.500 L 217.817 198.500 223.561 198.500 L 229.305 198.500 232.147 205.500 C 233.710 209.350, 234.991 213.512, 234.994 214.750 C 234.999 216.749, 235.502 217, 239.500 217 C 244.074 217, 245.243 215.742, 242.650 213.610 C 241.907 213, 240.266 209.800, 239.003 206.500 C 237.740 203.200, 236.057 199.059, 235.262 197.297 C 234.467 195.536, 232.116 189.705, 230.037 184.340 C 227.958 178.975, 225.803 174.434, 225.248 174.249 C 224.692 174.064, 220.740 182.724, 216.465 193.493 M 263 175.500 C 263 176.325, 263.450 177, 264 177 C 264.631 177, 265 183.833, 265 195.500 C 265 207.167, 264.631 214, 264 214 C 263.450 214, 263 214.675, 263 215.500 C 263 217.660, 278.478 217.593, 283.934 215.410 C 291.038 212.567, 294.160 203.466, 290.284 196.903 C 289.340 195.305, 287.765 193.743, 286.784 193.431 C 284.606 192.740, 284.516 191.647, 286.500 190 C 287.398 189.255, 288 187.068, 288 184.552 C 288 177.224, 282.427 174, 269.757 174 C 264.417 174, 263 174.315, 263 175.500 M 295.382 175.191 C 294.977 175.846, 295.176 176.559, 295.823 176.774 C 297.343 177.281, 297.518 214, 296 214 C 295.450 214, 295 214.699, 295 215.552 C 295 216.794, 296.034 217.044, 300.171 216.802 C 303.186 216.626, 305.515 215.979, 305.755 215.250 C 305.981 214.563, 305.454 214, 304.583 214 C 303.265 214, 303 212.598, 303 205.613 L 303 197.227 305.996 196.787 C 308.739 196.385, 309.339 196.880, 313.113 202.673 C 319.352 212.249, 324.505 217, 328.653 217 C 332.071 217, 337 214.563, 337 212.873 C 337 212.380, 335.311 212.246, 333.247 212.576 C 328.417 213.349, 325.834 211.373, 319.438 202.012 L 314.631 194.976 318.043 191.456 C 320.793 188.619, 321.455 187.144, 321.455 183.855 C 321.455 180.559, 320.902 179.334, 318.581 177.483 C 317 176.223, 314.367 174.923, 312.729 174.596 C 307.438 173.538, 296.165 173.924, 295.382 175.191 M 354.701 176.635 C 353.893 178.211, 351.338 184.450, 349.023 190.500 C 346.708 196.550, 344.015 203.300, 343.038 205.500 C 342.060 207.700, 340.947 210.512, 340.563 211.750 C 340.179 212.988, 339.446 214, 338.933 214 C 338.420 214, 338 214.675, 338 215.500 C 338 216.499, 338.999 217, 340.989 217 C 343.475 217, 343.947 216.622, 343.796 214.750 C 343.697 213.512, 344.898 209.238, 346.466 205.250 L 349.316 198 355.158 198 C 358.371 198, 361 198.439, 361 198.975 C 361 199.511, 362.321 202.835, 363.936 206.361 C 365.662 210.128, 366.644 213.643, 366.320 214.886 C 365.817 216.810, 366.177 217, 370.324 217 C 375.579 217, 377.148 215.492, 374.108 213.363 C 372.949 212.551, 372 211.231, 372 210.430 C 372 209.628, 371.603 208.191, 371.117 207.236 C 369.915 204.874, 368.903 202.496, 362.927 188 C 360.094 181.125, 357.414 175.111, 356.973 174.635 C 356.531 174.159, 355.509 175.059, 354.701 176.635 M 371 175.336 C 371 176.133, 371.675 177.045, 372.500 177.362 C 373.325 177.678, 374 178.426, 374 179.023 C 374 179.621, 374.850 181.998, 375.889 184.305 C 376.928 186.612, 378.993 191.650, 380.478 195.500 C 381.963 199.350, 383.776 203.850, 384.507 205.500 C 385.238 207.150, 386.597 210.412, 387.526 212.750 C 388.456 215.088, 389.518 217, 389.885 217 C 390.252 217, 392.521 211.713, 394.927 205.250 C 397.333 198.787, 399.827 192.600, 400.468 191.500 C 401.110 190.400, 402.660 186.719, 403.913 183.320 C 405.166 179.921, 406.823 176.898, 407.596 176.602 C 410.295 175.566, 408.970 174, 405.393 174 C 402.443 174, 401.902 174.302, 402.423 175.661 C 402.792 176.621, 400.664 183.340, 397.372 191.606 L 391.684 205.891 389.454 201.696 C 388.227 199.388, 385.992 193.900, 384.488 189.500 C 382.983 185.100, 381.266 180.600, 380.672 179.500 C 380.078 178.400, 379.572 176.825, 379.546 176 C 379.481 173.897, 371 173.237, 371 175.336 M 420.057 179.697 C 418.888 182.889, 417.648 186.175, 417.302 187 C 416.956 187.825, 416.596 188.725, 416.503 189 C 416.035 190.373, 413.850 195.737, 413.039 197.500 C 412.534 198.600, 410.884 202.762, 409.373 206.750 C 407.863 210.738, 406.261 214, 405.813 214 C 405.366 214, 405 214.705, 405 215.566 C 405 216.685, 405.786 217.042, 407.750 216.816 C 409.803 216.580, 410.454 215.994, 410.320 214.504 C 410.221 213.405, 410.829 210.930, 411.672 209.004 C 413.707 204.350, 414.702 201.865, 415.378 199.750 C 415.829 198.339, 417.104 198, 421.969 198 C 426.109 198, 428.011 198.392, 428.034 199.250 C 428.053 199.938, 428.937 202.300, 430 204.500 C 431.063 206.700, 431.947 209.261, 431.966 210.191 C 431.985 211.121, 432.408 212.134, 432.906 212.442 C 433.404 212.750, 433.577 213.902, 433.289 215.001 C 432.823 216.784, 433.260 217, 437.324 217 C 442.591 217, 443.964 215.676, 441.243 213.222 C 439.441 211.598, 435.304 202.356, 427.747 183.074 C 425.930 178.440, 423.935 174.478, 423.314 174.271 C 422.692 174.064, 421.227 176.506, 420.057 179.697 M 271 184.521 L 271 193.256 275.250 192.581 C 280.706 191.716, 281.846 190.484, 282.154 185.124 C 282.358 181.577, 281.967 180.392, 280.092 178.874 C 278.820 177.843, 276.965 177, 275.971 177 C 274.977 177, 273.452 176.727, 272.582 176.393 C 271.214 175.868, 271 176.967, 271 184.521 M 118.087 179.676 C 112.684 182.898, 111.112 186.163, 111.382 193.602 C 111.636 200.578, 114.196 205.522, 119.745 209.755 C 124.613 213.467, 133.860 213.670, 138.765 210.171 C 143.069 207.102, 145.352 202.532, 145.348 197 C 145.338 182.871, 129.552 172.839, 118.087 179.676 M 303 185.407 L 303 194 307.345 194 C 312.980 194, 315.503 191.423, 315.357 185.820 C 315.223 180.709, 312.518 177.913, 307.103 177.287 L 303 176.814 303 185.407 M 419.577 189.052 C 418.710 191.973, 418 194.506, 418 194.682 C 418 194.857, 419.800 195, 422 195 C 424.200 195, 426 194.820, 426 194.599 C 426 194.379, 424.910 191.845, 423.577 188.969 L 421.155 183.740 419.577 189.052 M 221.452 189.103 C 220.417 191.521, 219.404 193.838, 219.201 194.250 C 218.999 194.662, 220.896 195, 223.417 195 C 225.938 195, 228 194.859, 228 194.686 C 228 194.514, 226.950 192.198, 225.667 189.540 L 223.335 184.706 221.452 189.103 M 352.636 189.283 C 351.736 191.639, 351 193.889, 351 194.283 C 351 194.678, 352.800 195, 355 195 C 357.200 195, 359 194.532, 359 193.960 C 359 192.823, 355.172 185, 354.616 185 C 354.426 185, 353.536 186.928, 352.636 189.283 M 271.015 202.750 C 271.024 207.012, 271.361 210.972, 271.765 211.549 C 272.625 212.776, 280.071 213.430, 282.915 212.527 C 285.826 211.603, 287.436 205.851, 286.001 201.503 C 284.465 196.850, 281.557 195, 275.777 195 L 271 195 271.015 202.750" stroke="none" fill="#a0772c" fill-rule="evenodd"/></svg>